<svg width="20" height="20" viewBox="0 0 20 20" fill="none" xmlns="http://www.w3.org/2000/svg">
<path d="M5.85815 16.0873C4.78953 16.0873 3.92491 16.9363 3.92491 17.9741C3.92491 19.0118 4.78953 19.8609 5.85815 19.8609C6.92677 19.8609 7.8011 19.0118 7.8011 17.9741C7.8011 16.9363 6.92677 16.0873 5.85815 16.0873ZM0.972693 0.99292C0.451669 0.99292 0.0292969 1.41529 0.0292969 1.93632V1.93632C0.0292969 2.45734 0.45167 2.87972 0.972694 2.87972H1.22534C1.68238 2.87972 2.09946 3.14018 2.30004 3.55085L4.30326 7.65223C5.03317 9.14664 4.97884 10.9049 4.15807 12.3514V12.3514C4.00263 12.6156 3.9152 12.9269 3.9152 13.2571C3.9152 14.2948 4.78953 15.1439 5.85815 15.1439H16.5725C17.0935 15.1439 17.5159 14.7215 17.5159 14.2005V14.2005C17.5159 13.6795 17.0935 13.2571 16.5725 13.2571H6.26617C6.15025 13.2571 6.05551 13.1817 6.03004 13.0777C6.02105 13.0409 6.02807 13.0027 6.0375 12.9661V12.9661C6.04742 12.9276 6.06241 12.8905 6.08207 12.8559L6.21543 12.6214C6.65516 11.848 7.47629 11.3703 8.36595 11.3703H14.1643C14.8929 11.3703 15.534 10.9835 15.8643 10.3986L19.3422 4.27594C19.4199 4.14387 19.4588 3.98349 19.4588 3.82311C19.4588 3.30425 19.0216 2.87972 18.4873 2.87972H5.16729C4.52635 2.87972 3.94184 2.51324 3.66261 1.93632V1.93632C3.38339 1.35939 2.79888 0.99292 2.15794 0.99292H0.972693ZM15.5729 16.0873C14.5043 16.0873 13.6397 16.9363 13.6397 17.9741C13.6397 19.0118 14.5043 19.8609 15.5729 19.8609C16.6415 19.8609 17.5159 19.0118 17.5159 17.9741C17.5159 16.9363 16.6415 16.0873 15.5729 16.0873Z" fill="#8A3730"/>
</svg>
