<svg width="40" height="40" viewBox="0 0 40 40" fill="none" xmlns="http://www.w3.org/2000/svg">
<g clip-path="url(#clip0)">
<path d="M36.7438 9.42322L20.7879 0.211113C20.3004 -0.0703711 19.6996 -0.0703711 19.2121 0.211113L3.25623 9.42314C2.76865 9.70463 2.46826 10.2248 2.46826 10.7878V29.2121C2.46826 29.7751 2.76865 30.2953 3.25623 30.5768L19.212 39.7889C19.4558 39.9298 19.7279 40 19.9999 40C20.272 40 20.5441 39.9296 20.7879 39.7889L36.7438 30.5768C37.2314 30.2953 37.5317 29.7752 37.5317 29.2121V10.7879C37.5316 10.2249 37.2314 9.70471 36.7438 9.42322Z" fill="#C17053"/>
<path d="M19.9999 40C20.2712 40 20.5425 39.9298 20.7858 39.7899L36.7448 30.5761C36.8353 30.5238 36.9195 30.4631 36.9964 30.3954C21.8624 37.9397 19.9999 19.9999 19.9999 19.9999H19.5144V39.9228C19.6721 39.974 19.836 40 19.9999 40Z" fill="#B26544"/>
<path d="M19.9999 19.9999L37.3205 10C37.1845 9.76439 36.9876 9.564 36.7437 9.4233L20.7879 0.211113C20.3004 -0.0703711 19.6996 -0.0703711 19.2121 0.211113L14.7276 2.80025L3.25515 9.42385C3.01187 9.56463 2.81522 9.76471 2.67944 9.99994L19.9999 19.9999Z" fill="#CE875F"/>
<path d="M2.46838 10.7879V29.2122C2.46838 29.7749 2.76838 30.2948 3.25542 30.5763L19.2123 39.7891C19.456 39.9299 19.728 40.0001 19.9999 40.0001V20L2.67956 10C2.54346 10.2356 2.46838 10.5064 2.46838 10.7879Z" fill="#A55E3A"/>
<path d="M8.58433 21.9064L12.3943 24.106C12.6446 24.2152 13.0474 24.2554 13.0474 23.3833V15.8514L7.92417 13.0264L7.92175 20.8563C7.93941 21.1075 8.04667 21.5953 8.58433 21.9064Z" fill="#EFD89C"/>
<path d="M10.3475 14.4254L7.92432 13.0264V20.8563C7.94197 21.1075 8.04924 21.5954 8.58689 21.9064L10.3475 22.9228V14.4254Z" fill="#D8B880"/>
<path d="M24.2608 21.8873C24.0921 21.5951 24.1922 21.2214 24.4844 21.0526L32.7175 16.2993C33.0097 16.1305 33.3835 16.2307 33.5522 16.5229C33.721 16.8152 33.6208 17.1889 33.3285 17.3576L25.0953 22.111C24.804 22.2793 24.43 22.1804 24.2608 21.8873Z" fill="#A55E3A"/>
<path d="M24.2608 24.6245C24.0921 24.3324 24.1922 23.9586 24.4844 23.7899L32.7175 19.0365C33.0097 18.8677 33.3835 18.9678 33.5522 19.2602C33.721 19.5524 33.6208 19.9262 33.3285 20.0948L25.0953 24.8481C24.8036 25.0167 24.4298 24.9172 24.2608 24.6245Z" fill="#A55E3A"/>
<path d="M12.661 32.5043L12.5472 32.4385L12.547 32.4385V32.4384L8.46352 30.081C7.91774 29.7664 7.92188 30.3491 7.92188 30.3491V33.2737L13.0476 36.2332V33.2948C13.0476 32.844 12.8087 32.6075 12.661 32.5043Z" fill="#EFD89C"/>
<path d="M10.203 31.0853L8.46352 30.0811C7.91774 29.7666 7.92188 30.3492 7.92188 30.3492V33.2738L10.203 34.5909V31.0853Z" fill="#D8B880"/>
<path d="M25.4644 2.91113L7.93274 13.033L13.0472 15.9857C25.5757 8.76301 29.8964 6.25785 30.5788 5.86395L25.4644 2.91113Z" fill="#E2C688"/>
<path d="M27.8764 4.30379L25.4645 2.91113L7.92432 13.0264L10.3451 14.4257L27.8764 4.30379Z" fill="#D3B475"/>
</g>
<defs>
<clipPath id="clip0">
<rect width="40" height="40" fill="white"/>
</clipPath>
</defs>
</svg>
