<svg width="48" height="48" viewBox="0 0 48 48" fill="none" xmlns="http://www.w3.org/2000/svg">
<g clip-path="url(#clip0)">
<path d="M48 31.3734V36.8385C48 38.6945 43.0505 40.2413 36.9668 40.2413C30.8831 40.2413 26.0367 38.7461 26.0367 36.8901V36.2715L25.9336 31.9406H25.9851C26.81 33.5389 31.3471 34.7763 36.8121 34.7763C42.277 34.7763 47.8969 33.2296 47.8969 31.3735H48V31.3734Z" fill="#E2A63B"/>
<path d="M36.6574 11.0598V16.4733H36.5543C36.5543 18.3809 31.4502 19.8761 25.418 19.8761C23.0979 19.9276 20.7263 19.6698 18.4577 19.1027L18.3546 19.2058C17.2203 18.2778 15.9314 17.556 14.5394 17.092V16.9889L14.3848 11.2661C14.7457 13.019 19.5405 14.411 25.3665 14.411C31.1924 14.411 36.5543 12.9159 36.5543 11.0598H36.6574Z" fill="#F4B844"/>
<path d="M36.6574 11.163C36.6574 13.019 31.5533 14.5142 25.4696 14.5142C19.3859 14.5142 14.7973 13.1221 14.4364 11.3692C14.4364 11.3177 14.3849 11.2146 14.3849 11.163C14.3849 9.30693 19.3344 7.76016 25.4697 7.76016C31.6048 7.70865 36.6574 9.25531 36.6574 11.163Z" fill="#FEDB41"/>
<path d="M25.9851 31.9404L25.9336 30.8062L25.8304 26.1661C26.1913 27.919 30.9862 29.311 36.8121 29.311C42.6381 29.311 47.7938 27.8159 47.9484 26.0114H48V31.3733H47.8968C47.8968 33.2293 42.8958 34.7761 36.812 34.7761C30.7284 34.776 26.8101 33.5387 25.9851 31.9404Z" fill="#F4B844"/>
<path d="M18.6125 35.3948C20.0046 34.1059 21.0873 32.456 21.6544 30.6516H21.9121C23.0464 30.7547 24.1807 30.8062 25.4181 30.8062H25.9336V31.9405L26.0367 36.2713H25.4696C23.201 36.3229 20.9841 36.0651 18.7672 35.5496L18.6125 35.3948Z" fill="#E2A63B"/>
<path d="M25.9851 25.7535V26.0113L26.0883 30.8061H25.5726C24.2837 30.8061 23.0979 30.7546 21.9637 30.6515H21.7059C22.0668 29.5688 22.2215 28.4346 22.2215 27.3003C22.2215 26.5269 22.1183 25.8051 21.9637 25.0834H22.2215C23.3041 25.1865 24.3869 25.238 25.5726 25.238L26.0366 25.4958C25.9851 25.5988 25.9851 25.7019 25.9851 25.7535Z" fill="#F4B844"/>
<path d="M18.4578 19.1027C20.7263 19.6698 23.0979 19.9276 25.418 19.8761C31.4501 19.8761 36.5543 18.3809 36.5543 16.4733H36.6575V22.557C31.0377 22.557 26.4491 23.8975 25.882 25.5988L25.418 25.3411C24.2837 25.3411 23.2011 25.2895 22.1699 25.1864H21.9122C21.4482 22.8148 20.2108 20.701 18.3547 19.1542L18.4578 19.1027Z" fill="#E2A63B"/>
<path d="M22.0153 25.1865C21.4998 22.8148 20.2108 20.6495 18.3547 19.0512C17.2205 18.0201 15.8799 17.2983 14.4364 16.8858C13.4053 16.5249 12.271 16.3703 11.1883 16.3703C5.05299 16.3186 0.0519154 21.2165 0.000402631 27.3518C-0.0511101 33.487 4.84674 38.4881 10.9821 38.5396C13.8178 38.5396 16.4987 37.5085 18.6125 35.6008C20.0561 34.2603 21.1388 32.559 21.7059 30.7029C22.0668 29.6202 22.2214 28.5374 22.2214 27.4032C22.2215 26.6816 22.0153 25.9082 22.0153 25.1865Z" fill="#FEDB41"/>
<path d="M47.9486 25.9082V26.0113C47.7939 27.8159 42.7929 29.311 36.8123 29.311C30.8316 29.311 26.1915 27.919 25.8306 26.1661V25.9083C25.8306 25.8052 25.8306 25.7021 25.8821 25.5989C26.4492 23.8975 31.0378 22.5571 36.6575 22.5571H36.8122C42.896 22.557 47.9486 24.0522 47.9486 25.9082Z" fill="#FEDB41"/>
<path d="M11.1883 26.0628C10.2603 26.0628 9.48694 25.2894 9.48694 24.3614C9.48694 23.4334 10.2603 22.66 11.1883 22.66C12.1164 22.66 12.8897 23.4334 12.8897 24.3614C12.8897 24.9286 13.3538 25.3926 13.9209 25.3926C14.488 25.3926 14.952 24.9286 14.952 24.3614C14.952 22.7116 13.8178 21.2165 12.2195 20.7525V20.34C12.2195 19.7728 11.7555 19.3088 11.1883 19.3088C10.6212 19.3088 10.1572 19.7728 10.1572 20.34V20.7525C8.50741 21.165 7.37315 22.6601 7.42466 24.3614C7.42466 26.4237 9.12606 28.1251 11.1883 28.1251C12.1164 28.1251 12.8897 28.8985 12.8897 29.8265C12.8897 30.7545 12.1164 31.5279 11.1883 31.5279C10.2603 31.5279 9.48694 30.7545 9.48694 29.8265C9.48694 29.2594 9.02293 28.7954 8.4558 28.7954C7.88867 28.7954 7.42466 29.2594 7.42466 29.8265C7.42466 31.5279 8.55893 32.9715 10.1572 33.4355V34.2604C10.1572 34.8275 10.6212 35.2915 11.1883 35.2915C11.7555 35.2915 12.2195 34.8275 12.2195 34.2604V33.4355C14.2302 32.8683 15.3644 30.7545 14.7458 28.7438C14.2818 27.1971 12.8381 26.0628 11.1883 26.0628Z" fill="#E2A63B"/>
</g>
<defs>
<clipPath id="clip0">
<rect width="48" height="48" fill="white"/>
</clipPath>
</defs>
</svg>
