<svg width="48" height="48" viewBox="0 0 48 48" fill="none" xmlns="http://www.w3.org/2000/svg">
<path d="M40.9046 19.9785C40.0873 16.2183 38.0436 12.7852 35.1009 10.2512C33.3026 8.61634 31.1772 7.47199 28.8885 6.81799C27.2537 6.24582 25.4553 6.00064 23.7388 6.00064C14.0114 5.91866 6.08231 13.6842 6.00064 23.4115C5.91897 33.1388 13.6844 41.0678 23.4118 41.1495C27.9077 41.1495 32.1582 39.5146 35.5096 36.4901C37.7984 34.3648 39.515 31.6674 40.4141 28.7246C40.9863 27.008 41.2315 25.2914 41.2315 23.493C41.2316 22.349 40.9046 21.1228 40.9046 19.9785Z" fill="#FEDB41"/>
<path d="M23.7389 21.3679C22.2676 21.3679 21.0414 20.1418 21.0414 18.6704C21.0414 17.1991 22.2676 15.9729 23.7389 15.9729C25.2103 15.9729 26.4365 17.1991 26.4365 18.6704C26.4365 19.5696 27.1721 20.3053 28.0713 20.3053C28.9705 20.3053 29.7062 19.5696 29.7062 18.6704C29.7062 16.0547 27.9078 13.6842 25.3738 12.9485V12.2945C25.3738 11.3953 24.6381 10.6597 23.7389 10.6597C22.8398 10.6597 22.1041 11.3953 22.1041 12.2945V12.9485C19.4884 13.6025 17.69 15.973 17.7717 18.6704C17.7717 21.9401 20.4692 24.6376 23.7389 24.6376C25.2103 24.6376 26.4365 25.8638 26.4365 27.3352C26.4365 28.8065 25.2103 30.0327 23.7389 30.0327C22.2676 30.0327 21.0414 28.8065 21.0414 27.3352C21.0414 26.436 20.3057 25.7003 19.4066 25.7003C18.5074 25.7003 17.7717 26.436 17.7717 27.3352C17.7717 30.0327 19.5701 32.3214 22.1041 33.057V34.3649C22.1041 35.2641 22.8398 35.9997 23.7389 35.9997C24.6381 35.9997 25.3738 35.2641 25.3738 34.3649V33.057C28.5617 32.1579 30.36 28.8065 29.3792 25.6185C28.6435 23.1663 26.3546 21.3679 23.7389 21.3679Z" fill="#E2A63B"/>
</svg>
