<svg width="48" height="48" viewBox="0 0 48 48" fill="none" xmlns="http://www.w3.org/2000/svg">
<g clip-path="url(#clip0)">
<path d="M0.812224 27.0902C-0.101294 24.5714 -0.466843 18.8962 5.37911 16.3459C11.2251 13.7955 21.9964 10.7336 26.6513 9.52139C27.8328 8.93145 30.8965 8.12781 33.6991 9.63283C36.5018 11.1379 39.6023 13.6263 40.8023 14.6825C42.1288 15.3114 44.4245 17.5589 42.9953 21.5182C41.5661 25.4775 40.476 28.5653 40.1095 29.6143C39.5218 30.5761 37.868 32.6849 35.9544 33.4253C34.0409 34.1657 19.9878 38.6004 13.2004 40.7252C10.5944 40.9286 5.03572 40.255 3.64936 35.9336L0.812224 27.0902Z" fill="#F2C94C"/>
<circle cx="35.1881" cy="21.1759" r="3.21295" transform="rotate(-17.7871 35.1881 21.1759)" fill="#C29812"/>
<circle cx="34.9427" cy="20.411" r="3.21295" transform="rotate(-17.7871 34.9427 20.411)" fill="#F7BA00"/>
<path d="M32.8084 18.196C32.9873 17.8222 33.6665 17.288 34.8368 17.1234C34.9406 17.7755 34.7485 19.3134 36.4487 19.1897C38.1489 19.066 40.161 16.6279 40.7454 15.4915C41.3298 14.355 43.1597 11.1845 41.794 8.40656C40.9091 6.63427 37.3159 9.89593 36.5673 11.5069C35.9685 12.7956 35.0972 11.4162 34.7363 10.5653C34.727 9.98839 35.4756 8.36688 38.5451 6.49642C42.3818 4.15834 43.9587 7.923 44.0353 8.16201C44.112 8.40103 44.9401 10.9824 43.9283 13.4159C42.9164 15.8494 41.9181 18.4895 38.6396 20.5957C35.3612 22.702 33.2153 20.1216 32.8084 18.196Z" fill="#C29812"/>
<path d="M16.4192 30.0505L9.26056 26.8194L10.7971 31.4976L9.21265 32.0059L6.56741 23.7605L6.63208 23.7398L13.8042 27.0498L12.24 22.2854L13.8137 21.7806L16.4624 30.0367L16.4192 30.0505ZM20.5124 28.5234C19.9376 28.7078 19.4144 28.7568 18.9429 28.6703C18.4785 28.5815 18.081 28.3801 17.7505 28.0662C17.4199 27.7522 17.1751 27.3473 17.0161 26.8515C16.8639 26.3773 16.8489 25.9105 16.971 25.4513C17.0932 24.9921 17.3233 24.5854 17.6614 24.2313C17.9972 23.87 18.4166 23.6086 18.9196 23.4472C19.595 23.2305 20.2117 23.2506 20.7696 23.5075C21.3324 23.7549 21.7972 24.2279 22.164 24.9265L19.0676 27.1324C19.3829 27.3245 19.7381 27.3572 20.1333 27.2304C20.2986 27.1774 20.4474 27.0979 20.5799 26.992C20.7195 26.8838 20.8498 26.7588 20.9707 26.617L21.9986 27.5235C21.7932 27.7479 21.557 27.9505 21.2901 28.1312C21.0303 28.3097 20.7711 28.4404 20.5124 28.5234ZM18.4758 26.2881C18.4873 26.324 18.4977 26.3564 18.5069 26.3851L20.3516 25.0206C20.2293 24.8617 20.0755 24.7407 19.8903 24.6574C19.7028 24.567 19.4653 24.5679 19.1779 24.6601C18.8402 24.7684 18.6076 24.9699 18.4802 25.2643C18.3528 25.5588 18.3513 25.9001 18.4758 26.2881ZM25.805 21.4879L27.3561 23.2846L27.4648 20.9554L28.9307 20.4852L28.4083 26.1567L25.8966 23.5151L25.5198 27.0834L21.7739 22.7812L23.2397 22.3109L24.7525 24.0248L24.9431 22.3588L24.5224 21.8994L25.805 21.4879Z" fill="black"/>
</g>
<defs>
<clipPath id="clip0">
<rect width="48" height="48" fill="white"/>
</clipPath>
</defs>
</svg>
